<svg xmlns="http://www.w3.org/2000/svg" viewBox="0 0 32 32" role="img" aria-label="Luis Sellano">
  <!-- Header / cover night field -->
  <rect width="32" height="32" fill="#061418"/>
  <defs>
    <linearGradient id="g" x1="16" y1="0" x2="16" y2="32" gradientUnits="userSpaceOnUse">
      <stop stop-color="#1a353c"/>
      <stop offset="0.55" stop-color="#0a1c22"/>
      <stop offset="1" stop-color="#061418"/>
    </linearGradient>
  </defs>
  <rect width="32" height="32" fill="url(#g)"/>

  <!-- L -->
  <path fill="#e8eef0" d="M7.5 8.5h2.1v12.2H15.2v2.1H7.5z"/>
  <!-- S (geometric, cover-weight) -->
  <path fill="#e8eef0" fill-rule="evenodd" d="
    M24.8 11.2c0-1.85-1.55-3.1-3.85-3.1-2.15 0-3.7 1.1-4.05 2.85l2 .55c.2-.95.95-1.55 2.05-1.55 1.05 0 1.7.5 1.7 1.25 0 .85-.55 1.25-2.15 1.7l-1.15.35c-2.05.6-3.25 1.55-3.25 3.45 0 2.05 1.65 3.35 3.95 3.35 2.25 0 3.9-1.15 4.25-2.95l-2.05-.5c-.25 1-.95 1.6-2.15 1.6-1.15 0-1.85-.55-1.85-1.4 0-.8.5-1.25 2.15-1.75l1.2-.35c2.2-.65 3.3-1.7 3.3-3.5z"/>

  <!-- Stamp accent bar (book-title orange) -->
  <rect x="9.5" y="24.6" width="13" height="1.4" rx="0.5" fill="#c45c2c"/>
</svg>
